<?xml version="1.0" encoding="utf-8"?>
<!-- Generator: Adobe Illustrator 19.1.0, SVG Export Plug-In . SVG Version: 6.00 Build 0)  -->
<svg version="1.1" id="Layer_1" xmlns="http://www.w3.org/2000/svg" xmlns:xlink="http://www.w3.org/1999/xlink" x="0px" y="0px"
	 viewBox="20.5 20.5 55 55" style="enable-background:new 20.5 20.5 55 55;" xml:space="preserve">
<g id="XMLID_1_">
	<path id="XMLID_7_" d="M48,22.1c-14.3,0-25.9,11.6-25.9,25.9S33.7,73.9,48,73.9S73.9,62.3,73.9,48S62.3,22.1,48,22.1z M36.3,60.1
		l-0.3-0.5L31.5,52l-0.1-0.2l0.1-0.2l10.4-17.7l0.3-0.5l0.2,0.5l4.5,7.7l0.1,0.2L46.9,42L36.6,59.8L36.3,60.1z M63.7,53.2l-4.4,7.7
		l0,0.2h-0.2H38.5h-0.6l0.3-0.5l4.4-7.7l0.1-0.2h0.2h20.6H64L63.7,53.2z M63.5,50.9h-8.8h-0.2l-0.2-0.1L44,33l-0.3-0.5h0.6h8.8h0.2
		l0.1,0.2l10.3,17.8L64,51L63.5,50.9z"/>
</g>
</svg>
